<mxfile host="app.diagrams.net" modified="2023-04-13T20:03:36.411Z" agent="Mozilla/5.0 (Macintosh; Intel Mac OS X 10_15_7) AppleWebKit/605.1.15 (KHTML, like Gecko) Version/16.4 Safari/605.1.15" etag="IKN-i9F5wanTvYarR-CG" version="21.1.6" type="github">
  <diagram name="Página-1" id="ghBjL159prZCOPyHGvHp">
    <mxGraphModel dx="1204" dy="722" grid="1" gridSize="10" guides="1" tooltips="1" connect="1" arrows="1" fold="1" page="1" pageScale="1" pageWidth="827" pageHeight="1169" math="0" shadow="0">
      <root>
        <mxCell id="0" />
        <mxCell id="1" parent="0" />
        <mxCell id="otGCTODSgmC1nb-sW3ci-1" value="&lt;font style=&quot;font-size: 14px;&quot;&gt;FIM&lt;/font&gt;" style="shape=process;whiteSpace=wrap;html=1;backgroundOutline=1;" vertex="1" parent="1">
          <mxGeometry x="340" y="930" width="120" height="60" as="geometry" />
        </mxCell>
        <mxCell id="otGCTODSgmC1nb-sW3ci-4" style="edgeStyle=orthogonalEdgeStyle;rounded=0;orthogonalLoop=1;jettySize=auto;html=1;exitX=0.5;exitY=1;exitDx=0;exitDy=0;entryX=0.5;entryY=0;entryDx=0;entryDy=0;" edge="1" parent="1" source="otGCTODSgmC1nb-sW3ci-2" target="otGCTODSgmC1nb-sW3ci-3">
          <mxGeometry relative="1" as="geometry" />
        </mxCell>
        <mxCell id="otGCTODSgmC1nb-sW3ci-2" value="&lt;font style=&quot;font-size: 14px;&quot;&gt;INÍCIO&lt;/font&gt;" style="shape=process;whiteSpace=wrap;html=1;backgroundOutline=1;" vertex="1" parent="1">
          <mxGeometry x="340" y="10" width="120" height="60" as="geometry" />
        </mxCell>
        <mxCell id="otGCTODSgmC1nb-sW3ci-6" style="edgeStyle=orthogonalEdgeStyle;rounded=0;orthogonalLoop=1;jettySize=auto;html=1;exitX=0.5;exitY=1;exitDx=0;exitDy=0;entryX=0.5;entryY=0;entryDx=0;entryDy=0;" edge="1" parent="1" source="otGCTODSgmC1nb-sW3ci-3" target="otGCTODSgmC1nb-sW3ci-5">
          <mxGeometry relative="1" as="geometry" />
        </mxCell>
        <mxCell id="otGCTODSgmC1nb-sW3ci-3" value="&lt;b&gt;inteiro&lt;/b&gt;&lt;br&gt;&lt;span style=&quot;white-space: pre;&quot;&gt;&lt;b&gt; &lt;/b&gt;numero = 0&lt;br&gt;&lt;/span&gt;&lt;span style=&quot;white-space: pre;&quot;&gt; termo = 0&lt;br&gt;&lt;/span&gt;&lt;span style=&quot;white-space: pre;&quot;&gt; contador = 1&lt;/span&gt;" style="rounded=1;whiteSpace=wrap;html=1;align=left;" vertex="1" parent="1">
          <mxGeometry x="330" y="100" width="140" height="90" as="geometry" />
        </mxCell>
        <mxCell id="otGCTODSgmC1nb-sW3ci-5" value="Olá, Jovem! Vamos calcular!&lt;br&gt;Eu sou bom em tabuadas!" style="shape=document;whiteSpace=wrap;html=1;boundedLbl=1;" vertex="1" parent="1">
          <mxGeometry x="320" y="220" width="160" height="70" as="geometry" />
        </mxCell>
        <mxCell id="otGCTODSgmC1nb-sW3ci-13" style="edgeStyle=orthogonalEdgeStyle;rounded=0;orthogonalLoop=1;jettySize=auto;html=1;exitX=0.5;exitY=1;exitDx=0;exitDy=0;entryX=0.5;entryY=0;entryDx=0;entryDy=0;" edge="1" parent="1" source="otGCTODSgmC1nb-sW3ci-7" target="otGCTODSgmC1nb-sW3ci-12">
          <mxGeometry relative="1" as="geometry" />
        </mxCell>
        <mxCell id="otGCTODSgmC1nb-sW3ci-7" value="Digite o número que deseja tabular:&lt;br&gt;(numero)" style="shape=parallelogram;perimeter=parallelogramPerimeter;whiteSpace=wrap;html=1;fixedSize=1;" vertex="1" parent="1">
          <mxGeometry x="275" y="320" width="250" height="60" as="geometry" />
        </mxCell>
        <mxCell id="otGCTODSgmC1nb-sW3ci-10" value="" style="endArrow=classic;html=1;rounded=0;entryX=0.5;entryY=0;entryDx=0;entryDy=0;exitX=0.494;exitY=0.9;exitDx=0;exitDy=0;exitPerimeter=0;" edge="1" parent="1" source="otGCTODSgmC1nb-sW3ci-5" target="otGCTODSgmC1nb-sW3ci-7">
          <mxGeometry width="50" height="50" relative="1" as="geometry">
            <mxPoint x="390" y="450" as="sourcePoint" />
            <mxPoint x="440" y="400" as="targetPoint" />
          </mxGeometry>
        </mxCell>
        <mxCell id="otGCTODSgmC1nb-sW3ci-15" style="edgeStyle=orthogonalEdgeStyle;rounded=0;orthogonalLoop=1;jettySize=auto;html=1;exitX=1;exitY=0.5;exitDx=0;exitDy=0;entryX=1;entryY=0.5;entryDx=0;entryDy=0;" edge="1" parent="1" source="otGCTODSgmC1nb-sW3ci-12" target="otGCTODSgmC1nb-sW3ci-1">
          <mxGeometry relative="1" as="geometry">
            <mxPoint x="580" y="460" as="targetPoint" />
            <Array as="points">
              <mxPoint x="600" y="460" />
              <mxPoint x="600" y="960" />
            </Array>
          </mxGeometry>
        </mxCell>
        <mxCell id="otGCTODSgmC1nb-sW3ci-17" style="edgeStyle=orthogonalEdgeStyle;rounded=0;orthogonalLoop=1;jettySize=auto;html=1;exitX=0.5;exitY=1;exitDx=0;exitDy=0;" edge="1" parent="1" source="otGCTODSgmC1nb-sW3ci-12">
          <mxGeometry relative="1" as="geometry">
            <mxPoint x="400" y="600" as="targetPoint" />
          </mxGeometry>
        </mxCell>
        <mxCell id="otGCTODSgmC1nb-sW3ci-12" value="(contador &amp;lt;= 10 ) ?" style="rhombus;whiteSpace=wrap;html=1;" vertex="1" parent="1">
          <mxGeometry x="290" y="420" width="220" height="80" as="geometry" />
        </mxCell>
        <mxCell id="otGCTODSgmC1nb-sW3ci-16" value="Não" style="text;html=1;align=center;verticalAlign=middle;resizable=0;points=[];autosize=1;strokeColor=none;fillColor=none;" vertex="1" parent="1">
          <mxGeometry x="520" y="420" width="50" height="30" as="geometry" />
        </mxCell>
        <mxCell id="otGCTODSgmC1nb-sW3ci-18" value="Sim&lt;br&gt;" style="text;html=1;align=center;verticalAlign=middle;resizable=0;points=[];autosize=1;strokeColor=none;fillColor=none;" vertex="1" parent="1">
          <mxGeometry x="360" y="540" width="40" height="30" as="geometry" />
        </mxCell>
        <mxCell id="otGCTODSgmC1nb-sW3ci-23" style="edgeStyle=orthogonalEdgeStyle;rounded=0;orthogonalLoop=1;jettySize=auto;html=1;exitX=0.5;exitY=1;exitDx=0;exitDy=0;entryX=0.5;entryY=0;entryDx=0;entryDy=0;" edge="1" parent="1" source="otGCTODSgmC1nb-sW3ci-20" target="otGCTODSgmC1nb-sW3ci-21">
          <mxGeometry relative="1" as="geometry" />
        </mxCell>
        <mxCell id="otGCTODSgmC1nb-sW3ci-20" value="&lt;p style=&quot;margin: 0px; font-style: normal; font-variant-caps: normal; font-stretch: normal; font-size: 13px; line-height: normal; font-family: &amp;quot;Helvetica Neue&amp;quot;; font-size-adjust: none; font-kerning: auto; font-variant-alternates: normal; font-variant-ligatures: normal; font-variant-numeric: normal; font-variant-east-asian: normal; font-variant-position: normal; font-feature-settings: normal; font-optical-sizing: auto; font-variation-settings: normal;&quot;&gt;contador = contador + 1&lt;/p&gt;&lt;br&gt;&lt;p style=&quot;margin: 0px; font-style: normal; font-variant-caps: normal; font-stretch: normal; font-size: 13px; line-height: normal; font-family: &amp;quot;Helvetica Neue&amp;quot;; font-size-adjust: none; font-kerning: auto; font-variant-alternates: normal; font-variant-ligatures: normal; font-variant-numeric: normal; font-variant-east-asian: normal; font-variant-position: normal; font-feature-settings: normal; font-optical-sizing: auto; font-variation-settings: normal;&quot;&gt;  termo = termo + numero&lt;/p&gt;&lt;br&gt;&lt;p style=&quot;margin: 0px; font-style: normal; font-variant-caps: normal; font-stretch: normal; font-size: 13px; line-height: normal; font-family: &amp;quot;Helvetica Neue&amp;quot;; font-size-adjust: none; font-kerning: auto; font-variant-alternates: normal; font-variant-ligatures: normal; font-variant-numeric: normal; font-variant-east-asian: normal; font-variant-position: normal; font-feature-settings: normal; font-optical-sizing: auto; font-variation-settings: normal;&quot;&gt;&lt;br&gt;&lt;/p&gt;" style="whiteSpace=wrap;html=1;aspect=fixed;align=left;" vertex="1" parent="1">
          <mxGeometry x="325" y="600" width="150" height="150" as="geometry" />
        </mxCell>
        <mxCell id="otGCTODSgmC1nb-sW3ci-21" value="escreva(termo)" style="shape=document;whiteSpace=wrap;html=1;boundedLbl=1;" vertex="1" parent="1">
          <mxGeometry x="340" y="800" width="120" height="80" as="geometry" />
        </mxCell>
        <mxCell id="otGCTODSgmC1nb-sW3ci-24" value="" style="endArrow=classic;html=1;rounded=0;exitX=0.5;exitY=0.875;exitDx=0;exitDy=0;exitPerimeter=0;entryX=0.5;entryY=0;entryDx=0;entryDy=0;" edge="1" parent="1" source="otGCTODSgmC1nb-sW3ci-21" target="otGCTODSgmC1nb-sW3ci-1">
          <mxGeometry width="50" height="50" relative="1" as="geometry">
            <mxPoint x="270" y="830" as="sourcePoint" />
            <mxPoint x="320" y="780" as="targetPoint" />
          </mxGeometry>
        </mxCell>
      </root>
    </mxGraphModel>
  </diagram>
</mxfile>
